# xmcd CD database file
#
# Track frame offsets:
#	150
#	27794
#	61391
#	87983
#	117650
#	145045
#	151912
#	176811
#	199206
#	221823
#	249497
#
# Disc length: 3692 seconds
#
# Revision: 0
# Processed by: cddbd v1.5.2PL0 Copyright (c) Steve Scherf et al.
# Submitted via: CDex 1.51
#
DISCID=9f0e6a0b
DTITLE=Marcus Miller - The Sun Don't Lie
DYEAR=1993
DGENRE=Jazz
TTITLE0=Panther
TTITLE1=Steveland
TTITLE2=Rampage
TTITLE3=The Sun Don't Lie
TTITLE4=Scoop
TTITLE5=Mr. Pastorius
TTITLE6=Funny (All She Needs Is Love)
TTITLE7=Moons
TTITLE8=Teen Town
TTITLE9=Juju
TTITLE10=The Sun Is Good For Miles
EXTD=YEAR: 1993
EXTT0=
EXTT1=
EXTT2=
EXTT3=
EXTT4=
EXTT5=
EXTT6=
EXTT7=
EXTT8=
EXTT9=
EXTT10=
PLAYORDER=
